HIERARCHY
ROOT Hips
{
	OFFSET 0.000000 0.000000 0.000000 
	CHANNELS 6 Xposition Yposition Zposition Yrotation Zrotation Xrotation 
	JOINT Lumbar
	{
		OFFSET 0.000000 0.000000 0.000000 
		CHANNELS 3 Zrotation Xrotation Yrotation
		JOINT Neck
		{
			OFFSET 0.000000 0.445665 0.000000 
			CHANNELS 3 Zrotation Xrotation Yrotation
			End Site
			{
				OFFSET 0.000000 0.227535 0.000000 
			}
		}
		JOINT RightShoulder
		{
			OFFSET 0.019635 0.377685 0.194865 
			CHANNELS 3 Zrotation Xrotation Yrotation
			JOINT RightElbow
			{
				OFFSET 0.000000 -0.243375 0.000000 
				CHANNELS 2 Zrotation Yrotation
				JOINT RightWrist
				{
					OFFSET 0.000000 -0.264825 0.000000 
					CHANNELS 2 Zrotation Xrotation
					End Site
					{
						OFFSET 0.006600 -0.176220 0.000990 
					}
				}
			}
		}
		JOINT LeftShoulder
		{
			OFFSET 0.019635 0.377685 -0.194865 
			CHANNELS 3 Zrotation Xrotation Yrotation
			JOINT LeftElbow
			{
				OFFSET 0.000000 -0.243375 0.000000 
				CHANNELS 2 Zrotation Yrotation
				JOINT LeftWrist
				{
					OFFSET 0.000000 -0.264825 0.000000 
					CHANNELS 2 Zrotation Xrotation
					End Site
					{
						OFFSET 0.006600 -0.176220 -0.000990 
					}
				}
			}
		}
	}
	JOINT RightHip
	{
		OFFSET 0.052140 -0.069960 0.075570 
		CHANNELS 3 Zrotation Xrotation Yrotation
		JOINT RightKnee
		{
			OFFSET 0.000000 -0.402270 0.000000 
			CHANNELS 1 Zrotation
			JOINT RightAnkle
			{
				OFFSET 0.000000 -0.404085 0.000000 
				CHANNELS 3 Zrotation Xrotation Yrotation
				End Site
				{
					OFFSET 0.204105 -0.089430 0.008415 
				}
			}
		}
	}
	JOINT LeftHip
	{
		OFFSET 0.052140 -0.069960 -0.075570 
		CHANNELS 3 Zrotation Xrotation Yrotation
		JOINT LeftKnee
		{
			OFFSET 0.000000 -0.402270 0.000000 
			CHANNELS 1 Zrotation
			JOINT LeftAnkle
			{
				OFFSET 0.000000 -0.404085 0.000000 
				CHANNELS 3 Zrotation Xrotation Yrotation
				End Site
				{
					OFFSET 0.204105 -0.089430 -0.008415 
				}
			}
		}
	}
}
MOTION
Frames: 14
Frame Time: 0.02
-0.41576 -0.08303 0.00704 689.70704 -38.23736 6.95513 26.10953 6.32636 -6.01954 6.41879 -0.08672 -0.83079 20.36894 -14.5695 14.20752 34.71437 79.0637 -4.16999 0.13819 16.13616 13.29452 -14.05055 41.50717 -73.70023 -7.17988 -1.4796 63.73837 -0.78297 -9.56458 -25.93415 -7.79257 -3.045 -2.27572 65.95725 6.04538 6.76558 -31.52275 -8.87201 4.51929 3.14969
-0.41872 -0.08391 0.00297 688.73293 -38.81496 6.9885 25.0536 6.47144 -5.55793 6.13694 -0.13789 -0.83079 21.48899 -14.10607 14.58367 33.42347 79.25472 -4.10379 -0.00558 17.1852 12.55748 -14.31777 40.65155 -74.205 -6.87614 -1.35421 64.34315 -0.73405 -10.02693 -25.60795 -7.85808 -2.88448 -2.19058 66.73916 6.00702 6.15357 -31.7069 -9.05233 4.66307 3.24072
-0.42178 -0.08496 -0.00076 687.79086 -39.37247 6.93378 23.93512 6.63372 -5.14742 5.78606 -0.17018 -0.83079 22.75291 -13.49762 14.66848 31.75461 79.4012 -4.08014 -0.13888 18.1874 11.85415 -14.78882 39.79954 -74.76424 -6.53742 -1.22563 65.01132 -0.66404 -10.05406 -25.34073 -7.89425 -2.63739 -2.05731 67.55275 6.05812 5.53845 -31.96816 -9.22391 4.79334 3.32392
-0.42478 -0.08594 -0.00462 686.84512 -39.94051 6.92399 22.84507 6.78598 -4.72166 5.4714 -0.20986 -0.83079 23.96859 -12.95555 14.90202 30.23221 79.54968 -4.04377 -0.2633 19.21389 11.13045 -15.15246 38.93165 -75.30882 -6.20773 -1.09605 65.65078 -0.60081 -10.28255 -25.0467 -7.94264 -2.44068 -1.952 68.35207 6.07471 4.95946 -32.19173 -9.39481 4.92639 3.40851
-0.42783 -0.0869 -0.00855 685.85464 -40.50389 6.89252 21.75575 6.94728 -4.25963 5.13523 -0.25211 -0.83079 25.10969 -12.41505 15.07467 28.80794 79.78115 -3.97445 -0.44352 20.22383 10.42365 -15.58329 38.12658 -75.8566 -5.88112 -0.97449 66.28643 -0.54883 -10.49962 -24.74415 -7.99844 -2.19575 -1.82024 69.15333 6.06257 4.21753 -32.42507 -9.58688 5.07532 3.50325
-0.4308 -0.08793 -0.01227 684.96477 -41.07212 6.88625 20.64994 7.09331 -3.88571 4.82859 -0.28652 -0.83079 26.43744 -11.83751 15.30232 27.1026 79.83019 -3.98435 -0.50694 21.26135 9.69118 -15.9194 37.18859 -76.39364 -5.54965 -0.83802 66.94734 -0.46948 -10.63571 -24.47775 -8.03123 -2.03032 -1.73188 69.95749 6.13178 3.8178 -32.65734 -9.73247 5.18753 3.57475
-0.43356 -0.08908 -0.01553 684.34162 -41.65361 6.96378 19.51167 7.201 -3.75026 4.6113 -0.29121 -0.83079 28.2928 -11.16726 15.74637 24.59168 79.34467 -4.22083 -0.23534 22.35188 8.88255 -15.96084 35.90803 -76.87972 -5.21461 -0.64045 67.65036 -0.30912 -10.65355 -24.28296 -8.00233 -2.11789 -1.78186 70.7571 6.41388 4.39873 -32.86222 -9.7482 5.19894 3.58219
-0.43621 -0.09027 -0.01858 683.81918 -42.24127 7.07102 18.35921 7.29158 -3.70104 4.42779 -0.29142 -0.83079 30.32403 -10.46829 16.25519 21.83225 78.68297 -4.53335 0.15042 23.47793 8.04763 -15.89656 34.49033 -77.34759 -4.87952 -0.43174 68.37898 -0.12373 -10.60409 -24.12603 -7.95179 -2.28661 -1.87614 71.55881 6.77353 5.32099 -33.06438 -9.71776 5.17405 3.56662
-0.43889 -0.09144 -0.0217 683.25231 -42.82931 7.16968 17.21457 7.38461 -3.60743 4.23481 -0.30195 -0.83079 32.24339 -9.79919 16.73843 19.26763 78.12855 -4.79977 0.47419 24.61101 7.22269 -15.86893 33.11668 -77.82288 -4.54715 -0.24195 69.10444 0.04307 -10.58629 -23.96196 -7.91425 -2.41038 -1.94585 72.36261 7.09136 6.06607 -33.27173 -9.71072 5.16736 3.56263
-0.44167 -0.09264 -0.02491 682.6802 -43.40368 7.24497 16.06205 7.49987 -3.53634 4.01468 -0.27601 -0.83079 34.29868 -9.05595 17.19816 16.34878 77.45999 -5.11534 0.84169 25.64627 6.40466 -15.89562 31.81385 -78.30615 -4.20106 0.00585 69.79721 0.2404 -10.55089 -23.75768 -7.86253 -2.56483 -2.03247 73.15568 7.43944 6.90136 -33.46566 -9.69366 5.15326 3.55381
-0.4442 -0.09379 -0.02788 682.14344 -44.0077 7.37654 14.92329 7.56558 -3.43963 3.85993 -0.32621 -0.83079 36.11558 -8.4599 17.72251 14.10789 76.98517 -5.34725 1.14425 26.89223 5.56869 -15.7826 30.33901 -78.76559 -3.88488 0.13621 70.56217 0.38066 -10.53925 -23.64496 -7.83538 -2.67618 -2.09519 73.96994 7.7425 7.63298 -33.68516 -9.68603 5.14584 3.54948
-0.44614 -0.09478 -0.03026 681.67135 -44.69699 7.66205 13.82766 7.48939 -3.23812 3.87833 -0.57997 -0.83079 37.18937 -8.29751 18.44099 13.8518 77.11219 -5.31955 1.24676 28.73004 4.66327 -15.29814 28.35305 -79.17862 -3.64592 -0.06692 71.52961 0.34975 -10.63397 -23.77931 -7.88318 -2.64584 -2.07973 74.85224 7.89548 7.96864 -33.98178 -9.72067 5.16835 3.56494
-0.44781 -0.09571 -0.03239 681.23268 -45.41514 8.00268 12.74668 7.36533 -3.00986 3.96135 -0.9123 -0.83079 38.02424 -8.28113 19.21816 14.27892 77.43647 -5.20673 1.27867 30.77552 3.74563 -14.67779 26.21167 -79.56514 -3.43852 -0.38698 72.5665 0.2618 -10.75285 -24.0032 -7.9563 -2.57025 -2.03916 75.75361 8.00101 8.1924 -34.30258 -9.76562 5.19846 3.58545
-0.44957 -0.09666 -0.03462 680.78409 -46.11691 8.31453 11.65786 7.26947 -2.80226 4.01481 -1.21355 -0.83079 38.99525 -8.18544 19.94874 14.36096 77.65451 -5.13924 1.33804 32.71375 2.85048 -14.12623 24.1872 -79.95347 -3.22022 -0.64987 73.56539 0.20483 -10.84655 -24.18397 -8.01675 -2.51776 -2.01127 76.6397 8.13266 8.48558 -34.60832 -9.80248 5.22336 3.60246
